<?xml version="1.0" encoding="UTF-8"?>
<svg width="1440" height="1024" viewBox="0 0 1440 1024" fill="none" xmlns="http://www.w3.org/2000/svg">
    <!-- Gradiente para los elementos -->
    <defs>
        <linearGradient id="grad1" x1="0%" y1="0%" x2="100%" y2="100%">
            <stop offset="0%" style="stop-color:#00E5B0;stop-opacity:0.15"/>
            <stop offset="50%" style="stop-color:#FF1F8C;stop-opacity:0.15"/>
            <stop offset="100%" style="stop-color:#00D1FF;stop-opacity:0.15"/>
        </linearGradient>
    </defs>

    <!-- Grid de puntos -->
    <pattern id="grid" x="0" y="0" width="40" height="40" patternUnits="userSpaceOnUse">
        <circle cx="20" cy="20" r="1" fill="rgba(255,255,255,0.2)"/>
    </pattern>
    <rect width="100%" height="100%" fill="url(#grid)"/>

    <!-- Formas geométricas con gradiente -->
    <circle cx="200" cy="300" r="150" fill="url(#grad1)" opacity="0.1"/>
    <circle cx="1200" cy="700" r="200" fill="url(#grad1)" opacity="0.1"/>
    <circle cx="700" cy="200" r="100" fill="url(#grad1)" opacity="0.1"/>

    <!-- Líneas decorativas -->
    <line x1="0" y1="100" x2="1440" y2="100" stroke="url(#grad1)" stroke-width="1" opacity="0.1"/>
    <line x1="0" y1="500" x2="1440" y2="500" stroke="url(#grad1)" stroke-width="1" opacity="0.1"/>
    <line x1="0" y1="900" x2="1440" y2="900" stroke="url(#grad1)" stroke-width="1" opacity="0.1"/>

    <!-- Elementos adicionales -->
    <path d="M700,0 L740,40 L700,80 L660,40 Z" fill="url(#grad1)" opacity="0.1"/>
    <path d="M1200,200 L1240,240 L1200,280 L1160,240 Z" fill="url(#grad1)" opacity="0.1"/>
    <path d="M200,800 L240,840 L200,880 L160,840 Z" fill="url(#grad1)" opacity="0.1"/>
</svg>
